{"asset":{"version":"2.0","generator":"babylon.js glTF exporter for 3dsmax 2 v20191214.2"},"scene":0,"scenes":[{"nodes":[0,1],"extensions":{}}],"nodes":[{"mesh":0,"translation":[0.6144393,0.0,-0.6144393],"rotation":[0.0,0.0,0.0,1.0],"scale":[1.0,1.0,1.0],"name":"Cylinder001"},{"translation":[0.0,0.0,0.0],"rotation":[0.0,0.0,0.0,1.0],"scale":[1.0,1.0,1.0],"name":"Default light"}],"meshes":[{"primitives":[{"attributes":{"POSITION":1,"NORMAL":2,"TEXCOORD_0":3},"indices":0,"mode":4,"material":0}],"name":"Cylinder001"}],"accessors":[{"bufferView":0,"componentType":5123,"count":216,"type":"SCALAR","name":"accessorIndices"},{"bufferView":1,"componentType":5126,"count":216,"max":[8.197643,72.5038452,8.073104],"min":[-8.197643,0.0,-8.073103],"type":"VEC3","name":"accessorPositions"},{"bufferView":1,"byteOffset":2592,"componentType":5126,"count":216,"type":"VEC3","name":"accessorNormals"},{"bufferView":2,"componentType":5126,"count":216,"type":"VEC2","name":"accessorUVs"}],"bufferViews":[{"buffer":0,"byteLength":432,"name":"bufferViewScalar"},{"buffer":0,"byteOffset":432,"byteLength":5184,"byteStride":12,"name":"bufferViewFloatVec3"},{"buffer":0,"byteOffset":5616,"byteLength":1728,"byteStride":8,"name":"bufferViewFloatVec2"}],"buffers":[{"uri":"bgs_glowtest.bin","byteLength":7344}],"materials":[{"pbrMetallicRoughness":{"baseColorFactor":[0.03529412,0.5,0.0,1.0],"metallicFactor":0.0,"roughnessFactor":0.450053632},"emissiveFactor":[0.07058824,1.0,0.0],"alphaMode":"OPAQUE","name":"01 - Default"}]}